<mxfile host="app.diagrams.net" agent="Mozilla/5.0 (X11; Linux x86_64; rv:140.0) Gecko/20100101 Firefox/140.0" version="28.2.3">
  <diagram name="Page-1" id="DdnbluWmMijMLDluCKkO">
    <mxGraphModel dx="2298" dy="1664" grid="0" gridSize="10" guides="1" tooltips="1" connect="1" arrows="1" fold="1" page="0" pageScale="1" pageWidth="850" pageHeight="1100" math="0" shadow="0">
      <root>
        <mxCell id="0" />
        <mxCell id="1" parent="0" />
        <mxCell id="oCsBJFgnnnmhDWOF98Tg-3" value="" style="edgeStyle=none;curved=1;rounded=0;orthogonalLoop=1;jettySize=auto;html=1;fontSize=12;startSize=8;endSize=8;" edge="1" parent="1" source="oCsBJFgnnnmhDWOF98Tg-1" target="oCsBJFgnnnmhDWOF98Tg-2">
          <mxGeometry relative="1" as="geometry" />
        </mxCell>
        <mxCell id="oCsBJFgnnnmhDWOF98Tg-6" value="" style="edgeStyle=none;curved=1;rounded=0;orthogonalLoop=1;jettySize=auto;html=1;fontSize=12;startSize=8;endSize=8;" edge="1" parent="1" source="oCsBJFgnnnmhDWOF98Tg-1" target="oCsBJFgnnnmhDWOF98Tg-5">
          <mxGeometry relative="1" as="geometry" />
        </mxCell>
        <mxCell id="oCsBJFgnnnmhDWOF98Tg-10" value="" style="edgeStyle=none;curved=1;rounded=0;orthogonalLoop=1;jettySize=auto;html=1;fontSize=12;startSize=8;endSize=8;" edge="1" parent="1" source="oCsBJFgnnnmhDWOF98Tg-1" target="oCsBJFgnnnmhDWOF98Tg-9">
          <mxGeometry relative="1" as="geometry" />
        </mxCell>
        <mxCell id="oCsBJFgnnnmhDWOF98Tg-35" style="edgeStyle=none;curved=1;rounded=0;orthogonalLoop=1;jettySize=auto;html=1;fontSize=12;startSize=8;endSize=8;exitX=0.5;exitY=0;exitDx=0;exitDy=0;" edge="1" parent="1" source="oCsBJFgnnnmhDWOF98Tg-2" target="oCsBJFgnnnmhDWOF98Tg-34">
          <mxGeometry relative="1" as="geometry" />
        </mxCell>
        <mxCell id="oCsBJFgnnnmhDWOF98Tg-1" value="Похвастаться" style="shape=module;align=left;spacingLeft=20;align=center;verticalAlign=top;whiteSpace=wrap;html=1;fillColor=#dae8fc;strokeColor=#6c8ebf;" vertex="1" parent="1">
          <mxGeometry x="39" y="56" width="100" height="50" as="geometry" />
        </mxCell>
        <mxCell id="oCsBJFgnnnmhDWOF98Tg-11" style="edgeStyle=none;curved=1;rounded=0;orthogonalLoop=1;jettySize=auto;html=1;fontSize=12;startSize=8;endSize=8;" edge="1" parent="1" source="oCsBJFgnnnmhDWOF98Tg-2" target="oCsBJFgnnnmhDWOF98Tg-8">
          <mxGeometry relative="1" as="geometry" />
        </mxCell>
        <mxCell id="oCsBJFgnnnmhDWOF98Tg-2" value="Автооткат" style="shape=module;align=left;spacingLeft=20;align=center;verticalAlign=top;whiteSpace=wrap;html=1;" vertex="1" parent="1">
          <mxGeometry x="39" y="-114" width="100" height="50" as="geometry" />
        </mxCell>
        <mxCell id="oCsBJFgnnnmhDWOF98Tg-4" value="Лана считает, что было до релиза/что было после релиза - если что сломалось, то алерт в чат с призывом отв-х иди почини!" style="text;html=1;align=center;verticalAlign=middle;whiteSpace=wrap;rounded=0;" vertex="1" parent="1">
          <mxGeometry x="298" y="-125" width="213" height="70" as="geometry" />
        </mxCell>
        <mxCell id="oCsBJFgnnnmhDWOF98Tg-7" style="edgeStyle=none;curved=1;rounded=0;orthogonalLoop=1;jettySize=auto;html=1;fontSize=12;startSize=8;endSize=8;" edge="1" parent="1" source="oCsBJFgnnnmhDWOF98Tg-5" target="oCsBJFgnnnmhDWOF98Tg-4">
          <mxGeometry relative="1" as="geometry" />
        </mxCell>
        <mxCell id="oCsBJFgnnnmhDWOF98Tg-5" value="Lana" style="shape=module;align=left;spacingLeft=20;align=center;verticalAlign=top;whiteSpace=wrap;html=1;" vertex="1" parent="1">
          <mxGeometry x="357" y="53" width="100" height="50" as="geometry" />
        </mxCell>
        <mxCell id="oCsBJFgnnnmhDWOF98Tg-8" value="Проверяет набор показателей и откатываем релиз на предыдущую версию, не связан с Service Graph, устаревшая технология" style="text;html=1;align=center;verticalAlign=middle;whiteSpace=wrap;rounded=0;fillColor=#fff2cc;strokeColor=#d6b656;" vertex="1" parent="1">
          <mxGeometry x="-296" y="-125" width="189" height="76" as="geometry" />
        </mxCell>
        <mxCell id="oCsBJFgnnnmhDWOF98Tg-13" style="edgeStyle=none;curved=1;rounded=0;orthogonalLoop=1;jettySize=auto;html=1;fontSize=12;startSize=8;endSize=8;" edge="1" parent="1" source="oCsBJFgnnnmhDWOF98Tg-9" target="oCsBJFgnnnmhDWOF98Tg-12">
          <mxGeometry relative="1" as="geometry" />
        </mxCell>
        <mxCell id="oCsBJFgnnnmhDWOF98Tg-9" value="ServiceGraph" style="shape=module;align=left;spacingLeft=20;align=center;verticalAlign=top;whiteSpace=wrap;html=1;" vertex="1" parent="1">
          <mxGeometry x="-181" y="56" width="100" height="50" as="geometry" />
        </mxCell>
        <mxCell id="oCsBJFgnnnmhDWOF98Tg-15" value="" style="edgeStyle=none;curved=1;rounded=0;orthogonalLoop=1;jettySize=auto;html=1;fontSize=12;startSize=8;endSize=8;" edge="1" parent="1" source="oCsBJFgnnnmhDWOF98Tg-12" target="oCsBJFgnnnmhDWOF98Tg-14">
          <mxGeometry relative="1" as="geometry" />
        </mxCell>
        <mxCell id="oCsBJFgnnnmhDWOF98Tg-23" value="" style="edgeStyle=none;curved=1;rounded=0;orthogonalLoop=1;jettySize=auto;html=1;fontSize=12;startSize=8;endSize=8;" edge="1" parent="1" source="oCsBJFgnnnmhDWOF98Tg-12" target="oCsBJFgnnnmhDWOF98Tg-22">
          <mxGeometry relative="1" as="geometry" />
        </mxCell>
        <mxCell id="oCsBJFgnnnmhDWOF98Tg-12" value="Выделяет Happy Path И если в процессе его выполнения происходит техническая ошибка, то считаем произошла ошибка" style="text;html=1;align=center;verticalAlign=middle;whiteSpace=wrap;rounded=0;fillColor=#d5e8d4;strokeColor=#82b366;" vertex="1" parent="1">
          <mxGeometry x="-431" y="43" width="161" height="85" as="geometry" />
        </mxCell>
        <mxCell id="oCsBJFgnnnmhDWOF98Tg-17" value="" style="edgeStyle=none;curved=1;rounded=0;orthogonalLoop=1;jettySize=auto;html=1;fontSize=12;startSize=8;endSize=8;" edge="1" parent="1" source="oCsBJFgnnnmhDWOF98Tg-14" target="oCsBJFgnnnmhDWOF98Tg-16">
          <mxGeometry relative="1" as="geometry" />
        </mxCell>
        <mxCell id="oCsBJFgnnnmhDWOF98Tg-14" value="Ветки, которые не относятся к Happy Path если падают, то считаем что упало BO" style="text;html=1;align=center;verticalAlign=middle;whiteSpace=wrap;rounded=0;fillColor=#d5e8d4;strokeColor=#82b366;" vertex="1" parent="1">
          <mxGeometry x="-681" y="56" width="161" height="68" as="geometry" />
        </mxCell>
        <mxCell id="oCsBJFgnnnmhDWOF98Tg-19" value="" style="edgeStyle=none;curved=1;rounded=0;orthogonalLoop=1;jettySize=auto;html=1;fontSize=12;startSize=8;endSize=8;" edge="1" parent="1" source="oCsBJFgnnnmhDWOF98Tg-16" target="oCsBJFgnnnmhDWOF98Tg-18">
          <mxGeometry relative="1" as="geometry" />
        </mxCell>
        <mxCell id="oCsBJFgnnnmhDWOF98Tg-16" value="Качество разметки фиговое, поэтому мы не мониторим ошибки в бизнес логике, которые делают выполнение Happy Path невозможным, туда идем" style="text;html=1;align=center;verticalAlign=middle;whiteSpace=wrap;rounded=0;fillColor=#d5e8d4;strokeColor=#82b366;" vertex="1" parent="1">
          <mxGeometry x="-693.5" y="-156" width="186" height="92" as="geometry" />
        </mxCell>
        <mxCell id="oCsBJFgnnnmhDWOF98Tg-21" value="" style="edgeStyle=none;curved=1;rounded=0;orthogonalLoop=1;jettySize=auto;html=1;fontSize=12;startSize=8;endSize=8;" edge="1" parent="1" source="oCsBJFgnnnmhDWOF98Tg-18" target="oCsBJFgnnnmhDWOF98Tg-20">
          <mxGeometry relative="1" as="geometry" />
        </mxCell>
        <mxCell id="oCsBJFgnnnmhDWOF98Tg-18" value="Разметка качественная, если достижение порога по метрике стат значимости - достаточно большое число входов в услугу Happy Path за единицу времени&lt;br&gt;- успешное оказание услуги - если меньше 40% успешных Happy Path&#39;ов за 24 часа, то считаем что некачественная разметка&lt;br&gt;- доля зависаний (процка активная, но в ней ничего не происходит) оказания услуги &amp;lt; 20% за последние 24 часа" style="text;html=1;align=center;verticalAlign=middle;whiteSpace=wrap;rounded=0;fillColor=#d5e8d4;strokeColor=#82b366;" vertex="1" parent="1">
          <mxGeometry x="-776.25" y="-410" width="351.5" height="133" as="geometry" />
        </mxCell>
        <mxCell id="oCsBJFgnnnmhDWOF98Tg-20" value="В ОКРах команд на Q4 - чтобы у них были качественные покзаатели" style="text;html=1;align=center;verticalAlign=middle;whiteSpace=wrap;rounded=0;fillColor=#d5e8d4;strokeColor=#82b366;" vertex="1" parent="1">
          <mxGeometry x="-776.25" y="-600" width="351.5" height="70" as="geometry" />
        </mxCell>
        <mxCell id="oCsBJFgnnnmhDWOF98Tg-25" value="" style="edgeStyle=none;curved=1;rounded=0;orthogonalLoop=1;jettySize=auto;html=1;fontSize=12;startSize=8;endSize=8;" edge="1" parent="1" source="oCsBJFgnnnmhDWOF98Tg-22" target="oCsBJFgnnnmhDWOF98Tg-24">
          <mxGeometry relative="1" as="geometry" />
        </mxCell>
        <mxCell id="oCsBJFgnnnmhDWOF98Tg-22" value="Если Uptime пострадал, то SRE получили алерт в дневное время И проверяют влияние, эскалируют в продуктовую команду/мастер-систему" style="text;html=1;align=center;verticalAlign=middle;whiteSpace=wrap;rounded=0;fillColor=#d5e8d4;strokeColor=#82b366;" vertex="1" parent="1">
          <mxGeometry x="-431" y="248" width="161" height="101" as="geometry" />
        </mxCell>
        <mxCell id="oCsBJFgnnnmhDWOF98Tg-27" value="" style="edgeStyle=none;curved=1;rounded=0;orthogonalLoop=1;jettySize=auto;html=1;fontSize=12;startSize=8;endSize=8;" edge="1" parent="1" source="oCsBJFgnnnmhDWOF98Tg-24" target="oCsBJFgnnnmhDWOF98Tg-26">
          <mxGeometry relative="1" as="geometry" />
        </mxCell>
        <mxCell id="oCsBJFgnnnmhDWOF98Tg-24" value="В этой команде 3 Джуна" style="text;html=1;align=center;verticalAlign=middle;whiteSpace=wrap;rounded=0;fillColor=#d5e8d4;strokeColor=#82b366;" vertex="1" parent="1">
          <mxGeometry x="-431" y="469" width="161" height="101" as="geometry" />
        </mxCell>
        <mxCell id="oCsBJFgnnnmhDWOF98Tg-29" value="" style="edgeStyle=none;curved=1;rounded=0;orthogonalLoop=1;jettySize=auto;html=1;fontSize=12;startSize=8;endSize=8;" edge="1" parent="1" source="oCsBJFgnnnmhDWOF98Tg-26" target="oCsBJFgnnnmhDWOF98Tg-28">
          <mxGeometry relative="1" as="geometry" />
        </mxCell>
        <mxCell id="oCsBJFgnnnmhDWOF98Tg-26" value="На этих хрупких плечах держится надежность обслуживания всей компании" style="text;html=1;align=center;verticalAlign=middle;whiteSpace=wrap;rounded=0;fillColor=#f8cecc;strokeColor=#b85450;" vertex="1" parent="1">
          <mxGeometry x="-712" y="469" width="161" height="101" as="geometry" />
        </mxCell>
        <mxCell id="oCsBJFgnnnmhDWOF98Tg-31" value="" style="edgeStyle=none;curved=1;rounded=0;orthogonalLoop=1;jettySize=auto;html=1;fontSize=12;startSize=8;endSize=8;" edge="1" parent="1" source="oCsBJFgnnnmhDWOF98Tg-28" target="oCsBJFgnnnmhDWOF98Tg-30">
          <mxGeometry relative="1" as="geometry" />
        </mxCell>
        <mxCell id="oCsBJFgnnnmhDWOF98Tg-28" value="Не все так плохо, так как те сбои, которые чуваки могут фиксать, решаются автооткатами. Большинство сбоев, которые происходят на обслуживании связаны с мастер системами И единственная задача этих чуваков - правильно эскалировать" style="text;html=1;align=center;verticalAlign=middle;whiteSpace=wrap;rounded=0;fillColor=#d5e8d4;strokeColor=#82b366;" vertex="1" parent="1">
          <mxGeometry x="-1073" y="469" width="256" height="110" as="geometry" />
        </mxCell>
        <mxCell id="oCsBJFgnnnmhDWOF98Tg-33" value="" style="edgeStyle=none;curved=1;rounded=0;orthogonalLoop=1;jettySize=auto;html=1;fontSize=12;startSize=8;endSize=8;" edge="1" parent="1" source="oCsBJFgnnnmhDWOF98Tg-30" target="oCsBJFgnnnmhDWOF98Tg-32">
          <mxGeometry relative="1" as="geometry" />
        </mxCell>
        <mxCell id="oCsBJFgnnnmhDWOF98Tg-30" value="Если есть техническая ошибка, то работают, а если бизнес ошибка, то не работают" style="text;html=1;align=center;verticalAlign=middle;whiteSpace=wrap;rounded=0;fillColor=#d5e8d4;strokeColor=#82b366;" vertex="1" parent="1">
          <mxGeometry x="-1351" y="469" width="147" height="110" as="geometry" />
        </mxCell>
        <mxCell id="oCsBJFgnnnmhDWOF98Tg-32" value="Ошибок бизнес логики не так много - не больше 3х за год, но мы исправимся и начнем их нормально видеть" style="text;html=1;align=center;verticalAlign=middle;whiteSpace=wrap;rounded=0;fillColor=#dae8fc;strokeColor=#6c8ebf;" vertex="1" parent="1">
          <mxGeometry x="-1351" y="707" width="147" height="92" as="geometry" />
        </mxCell>
        <mxCell id="oCsBJFgnnnmhDWOF98Tg-37" value="" style="edgeStyle=none;curved=1;rounded=0;orthogonalLoop=1;jettySize=auto;html=1;fontSize=12;startSize=8;endSize=8;" edge="1" parent="1" source="oCsBJFgnnnmhDWOF98Tg-34" target="oCsBJFgnnnmhDWOF98Tg-36">
          <mxGeometry relative="1" as="geometry" />
        </mxCell>
        <mxCell id="oCsBJFgnnnmhDWOF98Tg-34" value="Происходит до 300 релизов в день, не до конца понятно зачем. Из них 10 автооткатов" style="text;html=1;align=center;verticalAlign=middle;whiteSpace=wrap;rounded=0;fillColor=#d5e8d4;strokeColor=#82b366;" vertex="1" parent="1">
          <mxGeometry x="9.5" y="-282" width="159" height="70" as="geometry" />
        </mxCell>
        <mxCell id="oCsBJFgnnnmhDWOF98Tg-39" value="" style="edgeStyle=none;curved=1;rounded=0;orthogonalLoop=1;jettySize=auto;html=1;fontSize=12;startSize=8;endSize=8;" edge="1" parent="1" source="oCsBJFgnnnmhDWOF98Tg-36" target="oCsBJFgnnnmhDWOF98Tg-38">
          <mxGeometry relative="1" as="geometry" />
        </mxCell>
        <mxCell id="oCsBJFgnnnmhDWOF98Tg-36" value="С техническим долгом продуктовые команды не работают - упало и упало, корректирующих мер (чтобы падение внешней системы не ломало Happy Path) не выполняем" style="text;html=1;align=center;verticalAlign=middle;whiteSpace=wrap;rounded=0;fillColor=#f8cecc;strokeColor=#b85450;" vertex="1" parent="1">
          <mxGeometry x="-268" y="-303" width="159" height="112" as="geometry" />
        </mxCell>
        <mxCell id="oCsBJFgnnnmhDWOF98Tg-38" value="В Q4 делаем анализ зависимостей в Happy Path делаем силами SRE И формируем реестр тех долга" style="text;html=1;align=center;verticalAlign=middle;whiteSpace=wrap;rounded=0;fillColor=#d5e8d4;strokeColor=#82b366;" vertex="1" parent="1">
          <mxGeometry x="-270" y="-496" width="159" height="86" as="geometry" />
        </mxCell>
        <mxCell id="oCsBJFgnnnmhDWOF98Tg-40" value="Прототип мониторинга процедур после релиза, сейчас не развивается, так как эта логика повторена в ТВорке в рамках Автооткатов. Нужна была, чтобы продать работу ТВорку" style="text;html=1;align=center;verticalAlign=middle;whiteSpace=wrap;rounded=0;fillColor=#d5e8d4;strokeColor=#82b366;" vertex="1" parent="1">
          <mxGeometry x="312" y="186" width="221" height="92" as="geometry" />
        </mxCell>
        <mxCell id="oCsBJFgnnnmhDWOF98Tg-41" style="edgeStyle=none;curved=1;rounded=0;orthogonalLoop=1;jettySize=auto;html=1;entryX=0.439;entryY=0.054;entryDx=0;entryDy=0;entryPerimeter=0;fontSize=12;startSize=8;endSize=8;" edge="1" parent="1" source="oCsBJFgnnnmhDWOF98Tg-5" target="oCsBJFgnnnmhDWOF98Tg-40">
          <mxGeometry relative="1" as="geometry" />
        </mxCell>
        <mxCell id="oCsBJFgnnnmhDWOF98Tg-42" value="Крупные сбои" style="shape=module;align=left;spacingLeft=20;align=center;verticalAlign=top;whiteSpace=wrap;html=1;fillColor=#f8cecc;strokeColor=#b85450;" vertex="1" parent="1">
          <mxGeometry x="55" y="504" width="100" height="50" as="geometry" />
        </mxCell>
      </root>
    </mxGraphModel>
  </diagram>
</mxfile>
